<svg width="1455" height="656" viewBox="0 0 1455 656" fill="none" xmlns="http://www.w3.org/2000/svg">
<rect width="656" height="656" fill="#1164C2"/>
<rect x="799" width="656" height="656" fill="#A8985C"/>
<path d="M977.668 357H970.097L991.994 297.364H999.449L1021.35 357H1013.78L995.955 306.798H995.489L977.668 357ZM980.463 333.705H1010.98V340.111H980.463V333.705ZM1048.69 357.815C1044.69 357.815 1041.16 357.107 1038.09 355.69C1035.04 354.253 1032.66 352.283 1030.96 349.778C1029.25 347.255 1028.4 344.382 1028.42 341.159C1028.4 338.635 1028.9 336.306 1029.91 334.17C1030.92 332.016 1032.3 330.22 1034.04 328.783C1035.81 327.327 1037.78 326.405 1039.95 326.017V325.668C1037.1 324.93 1034.83 323.328 1033.14 320.863C1031.45 318.378 1030.62 315.554 1030.64 312.389C1030.62 309.361 1031.38 306.653 1032.94 304.265C1034.49 301.877 1036.62 299.994 1039.34 298.616C1042.08 297.237 1045.2 296.548 1048.69 296.548C1052.15 296.548 1055.23 297.237 1057.95 298.616C1060.67 299.994 1062.8 301.877 1064.36 304.265C1065.93 306.653 1066.72 309.361 1066.74 312.389C1066.72 315.554 1065.86 318.378 1064.15 320.863C1062.46 323.328 1060.22 324.93 1057.43 325.668V326.017C1059.58 326.405 1061.52 327.327 1063.25 328.783C1064.98 330.22 1066.36 332.016 1067.38 334.17C1068.41 336.306 1068.94 338.635 1068.96 341.159C1068.94 344.382 1068.06 347.255 1066.34 349.778C1064.63 352.283 1062.25 354.253 1059.2 355.69C1056.17 357.107 1052.67 357.815 1048.69 357.815ZM1048.69 351.409C1051.39 351.409 1053.72 350.972 1055.68 350.099C1057.64 349.225 1059.15 347.992 1060.22 346.401C1061.29 344.809 1061.83 342.945 1061.85 340.81C1061.83 338.558 1061.25 336.568 1060.1 334.84C1058.96 333.112 1057.4 331.754 1055.42 330.763C1053.46 329.773 1051.21 329.278 1048.69 329.278C1046.15 329.278 1043.88 329.773 1041.88 330.763C1039.9 331.754 1038.33 333.112 1037.19 334.84C1036.06 336.568 1035.51 338.558 1035.53 340.81C1035.51 342.945 1036.02 344.809 1037.07 346.401C1038.14 347.992 1039.66 349.225 1041.64 350.099C1043.62 350.972 1045.97 351.409 1048.69 351.409ZM1048.69 323.105C1050.83 323.105 1052.72 322.678 1054.37 321.824C1056.04 320.97 1057.35 319.776 1058.3 318.242C1059.25 316.709 1059.74 314.913 1059.75 312.855C1059.74 310.836 1059.26 309.079 1058.33 307.585C1057.4 306.07 1056.11 304.906 1054.46 304.09C1052.81 303.255 1050.88 302.838 1048.69 302.838C1046.46 302.838 1044.51 303.255 1042.84 304.09C1041.17 304.906 1039.88 306.07 1038.96 307.585C1038.05 309.079 1037.6 310.836 1037.62 312.855C1037.6 314.913 1038.06 316.709 1038.99 318.242C1039.94 319.776 1041.25 320.97 1042.92 321.824C1044.59 322.678 1046.52 323.105 1048.69 323.105ZM1099.1 296.548C1101.55 296.568 1103.99 297.034 1106.44 297.946C1108.89 298.858 1111.12 300.373 1113.14 302.489C1115.16 304.585 1116.78 307.449 1118 311.079C1119.22 314.709 1119.84 319.261 1119.84 324.736C1119.84 330.036 1119.33 334.743 1118.32 338.859C1117.33 342.955 1115.89 346.41 1114.01 349.225C1112.15 352.04 1109.88 354.175 1107.2 355.631C1104.54 357.087 1101.53 357.815 1098.17 357.815C1094.83 357.815 1091.85 357.155 1089.23 355.835C1086.63 354.496 1084.49 352.642 1082.82 350.273C1081.17 347.886 1080.12 345.119 1079.65 341.974H1086.76C1087.4 344.712 1088.67 346.973 1090.57 348.759C1092.49 350.526 1095.03 351.409 1098.17 351.409C1102.77 351.409 1106.4 349.4 1109.06 345.381C1111.74 341.363 1113.08 335.685 1113.08 328.347H1112.61C1111.53 329.977 1110.24 331.385 1108.74 332.569C1107.25 333.753 1105.59 334.665 1103.76 335.306C1101.94 335.947 1100 336.267 1097.94 336.267C1094.52 336.267 1091.39 335.423 1088.53 333.734C1085.7 332.025 1083.43 329.686 1081.72 326.716C1080.03 323.726 1079.18 320.31 1079.18 316.466C1079.18 312.816 1080 309.477 1081.63 306.449C1083.28 303.401 1085.59 300.974 1088.56 299.169C1091.55 297.364 1095.06 296.49 1099.1 296.548ZM1099.1 302.955C1096.66 302.955 1094.45 303.566 1092.49 304.789C1090.55 305.993 1089.01 307.623 1087.86 309.681C1086.74 311.719 1086.17 313.981 1086.17 316.466C1086.17 318.951 1086.72 321.212 1087.8 323.251C1088.91 325.27 1090.42 326.881 1092.32 328.085C1094.24 329.269 1096.42 329.861 1098.87 329.861C1100.71 329.861 1102.43 329.502 1104.02 328.783C1105.62 328.046 1107 327.046 1108.19 325.784C1109.39 324.503 1110.33 323.057 1111.01 321.445C1111.69 319.815 1112.03 318.116 1112.03 316.349C1112.03 314.02 1111.47 311.836 1110.34 309.798C1109.24 307.759 1107.7 306.109 1105.74 304.847C1103.8 303.585 1101.59 302.955 1099.1 302.955ZM1150.39 357.815C1146.39 357.815 1142.86 357.107 1139.79 355.69C1136.74 354.253 1134.36 352.283 1132.66 349.778C1130.95 347.255 1130.1 344.382 1130.12 341.159C1130.1 338.635 1130.6 336.306 1131.61 334.17C1132.62 332.016 1133.99 330.22 1135.74 328.783C1137.51 327.327 1139.48 326.405 1141.65 326.017V325.668C1138.8 324.93 1136.53 323.328 1134.84 320.863C1133.15 318.378 1132.32 315.554 1132.33 312.389C1132.32 309.361 1133.08 306.653 1134.64 304.265C1136.19 301.877 1138.32 299.994 1141.04 298.616C1143.78 297.237 1146.89 296.548 1150.39 296.548C1153.84 296.548 1156.93 297.237 1159.65 298.616C1162.37 299.994 1164.5 301.877 1166.06 304.265C1167.63 306.653 1168.42 309.361 1168.44 312.389C1168.42 315.554 1167.56 318.378 1165.85 320.863C1164.16 323.328 1161.92 324.93 1159.12 325.668V326.017C1161.28 326.405 1163.22 327.327 1164.95 328.783C1166.68 330.22 1168.05 332.016 1169.08 334.17C1170.11 336.306 1170.64 338.635 1170.66 341.159C1170.64 344.382 1169.76 347.255 1168.04 349.778C1166.33 352.283 1163.95 354.253 1160.9 355.69C1157.87 357.107 1154.37 357.815 1150.39 357.815ZM1150.39 351.409C1153.09 351.409 1155.42 350.972 1157.38 350.099C1159.34 349.225 1160.85 347.992 1161.92 346.401C1162.99 344.809 1163.53 342.945 1163.55 340.81C1163.53 338.558 1162.95 336.568 1161.8 334.84C1160.66 333.112 1159.1 331.754 1157.12 330.763C1155.15 329.773 1152.91 329.278 1150.39 329.278C1147.85 329.278 1145.57 329.773 1143.57 330.763C1141.59 331.754 1140.03 333.112 1138.89 334.84C1137.76 336.568 1137.21 338.558 1137.23 340.81C1137.21 342.945 1137.72 344.809 1138.77 346.401C1139.84 347.992 1141.36 349.225 1143.34 350.099C1145.32 350.972 1147.67 351.409 1150.39 351.409ZM1150.39 323.105C1152.52 323.105 1154.42 322.678 1156.07 321.824C1157.74 320.97 1159.05 319.776 1160 318.242C1160.95 316.709 1161.43 314.913 1161.45 312.855C1161.43 310.836 1160.96 309.079 1160.03 307.585C1159.1 306.07 1157.8 304.906 1156.15 304.09C1154.5 303.255 1152.58 302.838 1150.39 302.838C1148.16 302.838 1146.21 303.255 1144.54 304.09C1142.87 304.906 1141.58 306.07 1140.66 307.585C1139.75 309.079 1139.3 310.836 1139.32 312.855C1139.3 314.913 1139.76 316.709 1140.69 318.242C1141.64 319.776 1142.95 320.97 1144.62 321.824C1146.29 322.678 1148.21 323.105 1150.39 323.105ZM1200.45 357.815C1197.04 357.815 1193.96 357.136 1191.22 355.777C1188.48 354.418 1186.29 352.554 1184.64 350.186C1182.99 347.818 1182.09 345.119 1181.93 342.091H1188.92C1189.19 344.789 1190.42 347.022 1192.59 348.788C1194.78 350.536 1197.4 351.409 1200.45 351.409C1202.9 351.409 1205.07 350.836 1206.97 349.691C1208.9 348.546 1210.4 346.973 1211.49 344.974C1212.59 342.955 1213.15 340.674 1213.15 338.131C1213.15 335.529 1212.58 333.21 1211.43 331.171C1210.3 329.113 1208.75 327.492 1206.77 326.308C1204.79 325.124 1202.53 324.522 1199.99 324.503C1198.16 324.483 1196.29 324.765 1194.37 325.347C1192.44 325.91 1190.86 326.638 1189.62 327.531L1182.86 326.716L1186.47 297.364H1217.46V303.77H1192.53L1190.44 321.358H1190.78C1192.01 320.387 1193.54 319.582 1195.39 318.941C1197.23 318.3 1199.15 317.98 1201.15 317.98C1204.8 317.98 1208.05 318.854 1210.91 320.601C1213.78 322.329 1216.03 324.697 1217.66 327.706C1219.31 330.715 1220.14 334.151 1220.14 338.014C1220.14 341.819 1219.28 345.216 1217.57 348.206C1215.89 351.176 1213.56 353.525 1210.59 355.253C1207.62 356.961 1204.24 357.815 1200.45 357.815ZM1280.74 316H1273.52C1273.09 313.923 1272.35 312.098 1271.28 310.526C1270.23 308.953 1268.95 307.633 1267.43 306.565C1265.94 305.478 1264.28 304.663 1262.45 304.119C1260.63 303.576 1258.73 303.304 1256.75 303.304C1253.14 303.304 1249.87 304.216 1246.93 306.041C1244.02 307.866 1241.7 310.555 1239.97 314.107C1238.27 317.66 1237.41 322.018 1237.41 327.182C1237.41 332.346 1238.27 336.704 1239.97 340.256C1241.7 343.809 1244.02 346.498 1246.93 348.322C1249.87 350.147 1253.14 351.06 1256.75 351.06C1258.73 351.06 1260.63 350.788 1262.45 350.244C1264.28 349.701 1265.94 348.895 1267.43 347.827C1268.95 346.74 1270.23 345.411 1271.28 343.838C1272.35 342.246 1273.09 340.421 1273.52 338.364H1280.74C1280.2 341.411 1279.21 344.139 1277.77 346.546C1276.33 348.953 1274.55 351.001 1272.41 352.69C1270.28 354.36 1267.88 355.631 1265.22 356.505C1262.58 357.379 1259.76 357.815 1256.75 357.815C1251.66 357.815 1247.14 356.573 1243.18 354.088C1239.22 351.603 1236.1 348.07 1233.83 343.489C1231.56 338.907 1230.42 333.472 1230.42 327.182C1230.42 320.892 1231.56 315.456 1233.83 310.875C1236.1 306.294 1239.22 302.76 1243.18 300.276C1247.14 297.791 1251.66 296.548 1256.75 296.548C1259.76 296.548 1262.58 296.985 1265.22 297.859C1267.88 298.732 1270.28 300.013 1272.41 301.702C1274.55 303.372 1276.33 305.41 1277.77 307.817C1279.21 310.205 1280.2 312.933 1280.74 316Z" fill="black"/>
<path d="M210.139 297.364V357H202.918V304.935H202.568L188.009 314.602V307.264L202.918 297.364H210.139ZM248.256 297.364V357H241.035V304.935H240.685L226.126 314.602V307.264L241.035 297.364H248.256ZM285.209 357.815C282.763 357.777 280.317 357.311 277.871 356.418C275.425 355.525 273.192 354.02 271.173 351.904C269.154 349.769 267.533 346.886 266.31 343.256C265.087 339.606 264.476 335.025 264.476 329.511C264.476 324.231 264.971 319.553 265.961 315.476C266.951 311.38 268.388 307.934 270.271 305.138C272.154 302.324 274.425 300.188 277.085 298.732C279.763 297.276 282.782 296.548 286.141 296.548C289.48 296.548 292.45 297.218 295.051 298.558C297.672 299.878 299.807 301.722 301.457 304.09C303.107 306.459 304.175 309.186 304.661 312.273H297.555C296.895 309.594 295.614 307.371 293.712 305.604C291.809 303.838 289.286 302.955 286.141 302.955C281.52 302.955 277.88 304.964 275.221 308.982C272.581 313.001 271.251 318.64 271.232 325.901H271.697C272.785 324.25 274.076 322.843 275.57 321.678C277.085 320.494 278.754 319.582 280.579 318.941C282.404 318.3 284.335 317.98 286.374 317.98C289.79 317.98 292.916 318.834 295.75 320.543C298.584 322.232 300.856 324.571 302.564 327.56C304.272 330.531 305.126 333.938 305.126 337.781C305.126 341.47 304.301 344.848 302.651 347.915C301.001 350.963 298.681 353.389 295.692 355.195C292.722 356.981 289.227 357.854 285.209 357.815ZM285.209 351.409C287.655 351.409 289.848 350.798 291.79 349.575C293.75 348.352 295.294 346.711 296.42 344.653C297.565 342.596 298.138 340.305 298.138 337.781C298.138 335.316 297.585 333.074 296.478 331.055C295.391 329.016 293.886 327.395 291.964 326.192C290.062 324.988 287.888 324.386 285.442 324.386C283.598 324.386 281.879 324.755 280.288 325.493C278.696 326.211 277.298 327.201 276.094 328.463C274.91 329.725 273.978 331.171 273.299 332.802C272.62 334.413 272.28 336.112 272.28 337.898C272.28 340.266 272.833 342.479 273.94 344.537C275.066 346.595 276.599 348.254 278.54 349.516C280.501 350.778 282.724 351.409 285.209 351.409ZM315.18 344.77V338.83L341.387 297.364H345.697V306.565H342.785L322.984 337.898V338.364H358.276V344.77H315.18ZM343.251 357V342.964V340.198V297.364H350.123V357H343.251ZM418.226 316H411.004C410.577 313.923 409.83 312.098 408.762 310.526C407.714 308.953 406.433 307.633 404.918 306.565C403.424 305.478 401.764 304.663 399.939 304.119C398.114 303.576 396.212 303.304 394.232 303.304C390.621 303.304 387.35 304.216 384.418 306.041C381.506 307.866 379.187 310.555 377.459 314.107C375.75 317.66 374.896 322.018 374.896 327.182C374.896 332.346 375.75 336.704 377.459 340.256C379.187 343.809 381.506 346.498 384.418 348.322C387.35 350.147 390.621 351.06 394.232 351.06C396.212 351.06 398.114 350.788 399.939 350.244C401.764 349.701 403.424 348.895 404.918 347.827C406.433 346.74 407.714 345.411 408.762 343.838C409.83 342.246 410.577 340.421 411.004 338.364H418.226C417.682 341.411 416.692 344.139 415.256 346.546C413.819 348.953 412.033 351.001 409.898 352.69C407.762 354.36 405.365 355.631 402.705 356.505C400.065 357.379 397.241 357.815 394.232 357.815C389.145 357.815 384.622 356.573 380.662 354.088C376.702 351.603 373.586 348.07 371.315 343.489C369.043 338.907 367.908 333.472 367.908 327.182C367.908 320.892 369.043 315.456 371.315 310.875C373.586 306.294 376.702 302.76 380.662 300.276C384.622 297.791 389.145 296.548 394.232 296.548C397.241 296.548 400.065 296.985 402.705 297.859C405.365 298.732 407.762 300.013 409.898 301.702C412.033 303.372 413.819 305.41 415.256 307.817C416.692 310.205 417.682 312.933 418.226 316ZM428.847 357V351.759L448.532 330.21C450.842 327.687 452.744 325.493 454.239 323.629C455.734 321.746 456.84 319.98 457.559 318.33C458.296 316.66 458.665 314.913 458.665 313.088C458.665 310.991 458.161 309.176 457.151 307.643C456.161 306.109 454.802 304.925 453.074 304.09C451.347 303.255 449.405 302.838 447.251 302.838C444.96 302.838 442.96 303.314 441.252 304.265C439.563 305.197 438.253 306.507 437.321 308.196C436.408 309.885 435.952 311.865 435.952 314.136H429.08C429.08 310.642 429.886 307.575 431.497 304.935C433.108 302.295 435.302 300.237 438.078 298.761C440.873 297.286 444.009 296.548 447.483 296.548C450.978 296.548 454.074 297.286 456.773 298.761C459.471 300.237 461.587 302.227 463.121 304.731C464.654 307.235 465.421 310.021 465.421 313.088C465.421 315.282 465.023 317.427 464.227 319.523C463.451 321.601 462.092 323.92 460.15 326.483C458.229 329.026 455.559 332.132 452.143 335.801L438.748 350.128V350.594H466.469V357H428.847Z" fill="white"/>
</svg>
