<svg width="1730" height="521" viewBox="0 0 1730 521" fill="none" xmlns="http://www.w3.org/2000/svg">
<path d="M1229.3 405.7H1228.5L1160.7 405.2C1117.5 404.8 1076.7 404.4 1022 404.2C1017 404.5 999.7 403.8 980.5 400.6C953 395.9 931.9 387.9 917.8 376.8C893.3 357.5 892.9 336.4 892.8 326.3C892.8 325 892.7 323.7 892.7 323.1V322.2C892.2 299.8 891.8 276.1 891.5 253.2C891.2 230.3 890.7 206.6 890.2 184.3V183.9C890.8 131.9 917.6 111.1 929.2 104.6C960.4 86.9 1008.4 83.2 1043 85.6H1229C1266.7 82.8 1299.9 97.8 1315.7 124.7C1322.09 135.731 1325.47 148.25 1325.5 161V204.6H1218.5L1215.9 198.7C1212.45 191.03 1206.72 184.606 1199.5 180.3H1199.4C1192.4 176 1178.3 174.7 1174.9 175H1048.9C1038 175 1022.5 177.7 1014.7 185.5L1014.4 185.8C1011.9 188.3 1006.8 193.4 1007.1 217C1007.3 230.3 1007.2 243.7 1007.2 256.8C1007.1 263.3 1007.1 269.9 1007.1 276.5C1007.09 285.669 1010.15 294.577 1015.8 301.8L1016.9 303.1C1021.56 308.361 1027.29 312.57 1033.7 315.45C1040.12 318.329 1047.07 319.812 1054.1 319.8L1090.6 320C1117.7 320.1 1143.2 320.3 1174.3 320.3C1191.3 320.3 1202.5 310.5 1210.4 301.9C1212.7 299.346 1214.23 296.19 1214.8 292.8H1090.8V213.9L1325.5 214.5V319.7C1325.98 330.06 1324.29 340.406 1320.56 350.081C1316.82 359.756 1311.12 368.549 1303.8 375.9C1285.5 394.6 1257.8 405.7 1229.3 405.7Z" fill="#A8985C"/>
<path d="M0 405.9V84.5L378.1 84L377.8 173.7H118.4L118.6 207.7L366.4 208.5V287L118.6 286.3L118.4 316.3L381.9 317L382.2 406.2L0 405.9Z" fill="#A8985C"/>
<path d="M1347.7 405.9V84.5L1725.9 84L1725.5 173.7H1466.1L1466.3 207.7L1714.1 208.5V287L1466.3 286.3L1466.2 316.3L1729.6 317L1729.9 406.2L1347.7 405.9Z" fill="#A8985C"/>
<path d="M407.9 83.2H707C759.7 84.8 786.2 85.6 822.2 104.6H822.4C848.4 118.9 861.7 144.8 862.1 181.4V181.8L859.1 316.6V317.6C858.1 326.8 855 354.6 827.3 375.9C794.7 401.1 738.1 401.8 731.7 401.8H727.9C671.9 402 621.7 402.4 573.2 402.8C524.7 403.2 474.2 403.7 418.1 403.8H407.9V83.2ZM530.6 314L708.4 313.2C712.7 312.7 725.3 310.3 734.4 299.3C740.176 292.219 743.29 283.338 743.2 274.2V214.6C743.414 207.887 741.972 201.224 739 195.2C731.3 180 716 174.3 710 172.6H530.6V314Z" fill="#A8985C"/>
<path d="M8.09985 14H39.5999V61.3H58.0999V14H89.7999V0.200005H8.09985V14Z" fill="#A8985C"/>
<path d="M167.1 22.6H114.8V0.200005H97.5V61.3H114.8V36.5H167.1V61.3H185.5V0.200005H167.1V22.6Z" fill="#A8985C"/>
<path d="M213.9 47.4V36.4L262.8 36.2V22.6L213.9 22.8V13.9L266.5 13.7V0L197 0.200001V61.3L267 61.1V47.2L213.9 47.4Z" fill="#A8985C"/>
<path d="M88.6999 481.7C88.6999 490.7 87 496.6 83.6 499.6C80.2 502.6 73.4999 504 63.4999 504L47.8999 504.3L35.2 504.1C21.6 504.1 12.9 502.4 9.09995 499C5.19995 495.6 3.29995 490.3 3.29995 483.1L2.69995 469.5C2.69995 458.767 4.29995 450.967 7.49995 446.1C10.6999 441.233 17.2999 438.733 27.2999 438.6L46.4999 438.2H60.2999C63.8999 438.333 68.2999 438.633 73.4999 439.1C78.6999 439.567 82.4 441.767 84.6 445.7C86.8 449.5 87.9 454.8 87.9 461.5H67.9999C67.9999 458.5 67.2999 456.6 65.7999 455.6C64.2999 454.6 61.9 454.1 58.6 454.1H36.7999C30.5999 454.1 26.7999 455.2 25.3999 457.4C23.9999 459.6 23.2999 464.1 23.2999 471C23.2999 477.9 24.1999 482.7 25.7999 484.9C27.3999 487.1 31.7 488 38.7 488L46.7 488.2H57.1C61.2 488.2 64.2 487.7 65.9 486.6C67.6 485.5 68.4999 482.9 68.4999 478.9H88.6L88.6999 481.7Z" fill="#A8985C"/>
<path d="M148 438.1H164.4C176.4 438.1 184.5 440 189 443.8C193.5 447.6 195.6 455.3 195.6 466.7V469.9C195.6 483.3 193.8 492.4 190.3 496.9C186.8 501.4 178 503.8 163.8 503.8L148.3 504.1H141.9L128 503.6C120.2 503.6 114.1 501.9 109.9 498.5C105.7 495.1 103.6 489.6 103.6 482L103.4 470C103.4 456.9 105.1 448.3 108.6 444.2C112.1 440.1 120.4 438.1 133.5 438.1H148ZM136.9 488.1L147.9 488.3H158.4C164.2 488.3 168.4 487.7 170.9 486.5C173.4 485.3 174.7 482.4 174.7 477.6L174.9 468.8C174.936 466.254 174.736 463.709 174.3 461.2C174.132 459.426 173.355 457.765 172.1 456.5C170.622 455.367 168.854 454.674 167 454.5C164.58 454.174 162.142 454.007 159.7 454H139.4C134.7 454 131.2 454.5 128.8 455.4C126.4 456.3 125 458.2 124.6 461.2C124.241 463.618 124.04 466.056 124 468.5V472.9C124 478.9 124.8 482.9 126.2 485C127.6 487.1 131.2 488.1 136.9 488.1Z" fill="#A8985C"/>
<path d="M271.4 503.6L230.9 454.9V503.6H211.6V438.7H244.2L284.7 487.4V438.7H304V503.6H271.4Z" fill="#A8985C"/>
<path d="M335.7 484C335.7 486.6 336.6 488.3 338.4 489C340.832 489.724 343.363 490.062 345.9 490H355.2L368.5 489.6C372.1 489.6 374.5 489.1 375.6 488.2C376.188 487.678 376.647 487.028 376.942 486.299C377.237 485.571 377.359 484.784 377.3 484C377.327 483.201 377.17 482.406 376.841 481.678C376.511 480.95 376.018 480.307 375.4 479.8C374.1 478.7 371.7 478.2 368.1 478.2H364.9L332.3 477.5C326.2 477.5 321.9 476 319.4 472.9C316.9 469.8 315.6 465.1 315.6 458.8C315.6 452.5 316.4 449.2 318 446.2C319.6 443.2 322.5 441.2 326.7 440.1C332.123 438.919 337.65 438.282 343.2 438.2L356.9 438L370.7 438.2C375.203 438.073 379.705 438.509 384.1 439.5C387.5 440.3 389.9 441.9 391.3 444.3C392.545 446.234 393.458 448.364 394 450.6C394.364 453.184 394.531 455.791 394.5 458.4H375.1C375.1 456.1 374.5 454.5 373.1 453.6C371.403 452.622 369.454 452.17 367.5 452.3H358L342.8 452.7C341.024 452.644 339.265 453.058 337.7 453.9C337.021 454.237 336.458 454.769 336.084 455.429C335.709 456.088 335.541 456.844 335.6 457.6C335.6 460 336.5 461.6 338.1 462.3C340.261 463.153 342.58 463.528 344.9 463.4H346.9L360.2 463.6H373.3C381.7 463.6 387.8 464.9 391.6 467.6C395.4 470.3 397.3 475.5 397.3 483.4C397.3 491.3 395.6 496.3 392.2 499.1C388.8 501.9 383.1 503.4 375.2 503.4L349.9 504.1L336.6 503.8C329.6 503.8 324.4 502.7 321.1 500.4C317.8 498.1 316.1 493.6 316.1 486.7V482.9H335.6L335.7 484Z" fill="#A8985C"/>
<path d="M440.1 503.6V455H410V438.7H490.5V455H460.6V503.6H440.1Z" fill="#A8985C"/>
<path d="M563.9 438.7C572 438.7 577.8 440.2 581.2 443.3C584.6 446.4 586.4 451.6 586.4 459.3C586.465 461.777 586.297 464.254 585.9 466.7C585.649 468.628 584.965 470.474 583.9 472.1C583.053 473.522 581.846 474.694 580.4 475.5C577.657 476.793 574.815 477.864 571.9 478.7C576.6 479.3 580.1 480.4 582.3 482.2C584.5 484 585.6 486.9 585.6 491.2V503.6H564.9V497.4C564.98 494.836 564.676 492.275 564 489.8C563.4 487.9 560.7 487 556 487H521.8V503.6H501.3V438.7H563.9ZM555.4 471.2C560 471.2 562.9 470.7 564 469.6C565.1 468.5 565.8 466 565.8 462.2C565.858 460.571 565.621 458.945 565.1 457.4C564.845 456.863 564.469 456.394 564 456.029C563.531 455.664 562.983 455.415 562.4 455.3C561.288 454.971 560.151 454.737 559 454.6H521.8V471.3H555.4V471.2Z" fill="#A8985C"/>
<path d="M683.6 475.8V479.6C683.6 489.7 680.8 496.4 675.4 499.6C670 502.8 661.4 504.4 650 504.4H633.2C626.405 504.536 619.612 504.068 612.9 503C608.371 502.205 604.304 499.744 601.5 496.1C598.6 492.4 597.1 486.6 597.1 478.7V438.8H617.6V472.8C617.6 479.333 618.4 483.533 620 485.4C621.6 487.4 625.7 488.3 632.2 488.3H649.9C655.5 488.3 659.1 487.5 660.6 485.8C662.1 484.1 663 480.7 663 475.6V438.8H683.6V475.8Z" fill="#A8985C"/>
<path d="M787 481.7C787 490.7 785.3 496.6 781.9 499.6C778.5 502.6 771.8 504 761.8 504L746.1 504.3L733.4 504.1C719.933 504.1 711.233 502.4 707.3 499C703.5 495.6 701.5 490.3 701.5 483.1L700.9 469.5C700.9 458.8 702.6 451 705.8 446.1C709 441.2 715.6 438.6 725.6 438.6L744.7 438.2H758.5C762.2 438.3 766.6 438.6 771.8 439.1C777 439.6 780.6 441.8 782.9 445.7C785.2 449.6 786.2 454.8 786.2 461.5H766.3C766.3 458.5 765.6 456.6 764 455.6C762.4 454.6 760.1 454.1 756.8 454.1H735C728.9 454.1 725.1 455.2 723.7 457.4C722.3 459.6 721.6 464.1 721.6 471C721.6 477.9 722.4 482.7 724 484.9C725.6 487.1 730 488 737 488L744.9 488.2H755.4C759.5 488.2 762.4 487.7 764.2 486.6C766 485.5 766.8 482.9 766.8 478.9H786.9L787 481.7Z" fill="#A8985C"/>
<path d="M828.1 503.6V455H798V438.7H878.5V455H848.6V503.6H828.1Z" fill="#A8985C"/>
<path d="M914.1 438.7H893.6V503.57H914.1V438.7Z" fill="#A8985C"/>
<path d="M973.7 438.1H990.1C1002.1 438.1 1010.3 440 1014.7 443.8C1019.1 447.6 1021.3 455.3 1021.3 466.7V469.9C1021.3 483.3 1019.5 492.4 1016 496.9C1012.5 501.4 1003.7 503.8 989.5 503.8L974.1 504.1H967.6L953.7 503.6C945.9 503.6 939.9 501.9 935.6 498.5C931.3 495.1 929.3 489.6 929.3 482L929.1 470C929.1 456.9 930.8 448.3 934.3 444.2C937.8 440.1 946.1 438.1 959.2 438.1H973.7ZM962.7 488.1L973.6 488.3H984.1C989.9 488.3 994.1 487.7 996.6 486.5C999.1 485.3 1000.4 482.4 1000.4 477.6L1000.6 468.8C1000.64 466.254 1000.44 463.709 1000 461.2C999.832 459.426 999.055 457.765 997.8 456.5C996.322 455.367 994.554 454.674 992.7 454.5C990.313 454.177 987.908 454.01 985.5 454H965.1C960.4 454 956.9 454.5 954.5 455.4C952.1 456.3 950.7 458.2 950.3 461.2C949.94 463.618 949.74 466.056 949.7 468.5V472.9C949.7 478.9 950.5 482.9 951.9 485C953.3 487.1 956.9 488.1 962.7 488.1" fill="#A8985C"/>
<path d="M1097.1 503.6L1056.6 454.9V503.6H1037.3V438.7H1069.9L1110.5 487.4V438.7H1129.7V503.6H1097.1Z" fill="#A8985C"/>
<path d="M1257.1 481.7C1257.1 490.7 1255.4 496.6 1252 499.6C1248.6 502.6 1241.9 504 1231.9 504L1216.3 504.3L1203.5 504.1C1190 504.1 1181.3 502.4 1177.5 499C1173.7 495.6 1171.7 490.3 1171.7 483.1L1171.1 469.5C1171.1 458.767 1172.7 450.967 1175.9 446.1C1179.1 441.233 1185.7 438.733 1195.7 438.6L1214.8 438.2H1228.7C1232.3 438.333 1236.7 438.633 1241.9 439.1C1247.1 439.567 1250.8 441.767 1253 445.7C1255.2 449.5 1256.3 454.8 1256.3 461.5H1236.4C1236.4 458.5 1235.7 456.6 1234.2 455.6C1232.7 454.6 1230.2 454.1 1226.9 454.1H1205.2C1199 454.1 1195.2 455.2 1193.8 457.4C1192.4 459.6 1191.7 464.1 1191.7 471C1191.7 477.9 1192.5 482.7 1194.2 484.9C1195.9 487.1 1200.1 488 1207.1 488L1215 488.2H1225.5C1229.6 488.2 1232.6 487.7 1234.3 486.6C1236 485.5 1236.9 482.9 1236.9 478.9H1257L1257.1 481.7Z" fill="#A8985C"/>
<path d="M1317.6 438.1H1334C1345.9 438.1 1354.1 440 1358.5 443.8C1362.9 447.6 1365.1 455.3 1365.1 466.7V469.9C1365.1 483.3 1363.4 492.4 1359.9 496.9C1356.4 501.4 1347.6 503.8 1333.4 503.8L1317.9 504.1H1311.5L1297.6 503.6C1289.7 503.6 1283.7 501.9 1279.5 498.5C1275.3 495.1 1273.1 489.6 1273.1 482L1272.9 470C1272.9 456.9 1274.7 448.3 1278.2 444.2C1281.7 440.1 1290 438.1 1303.1 438.1H1317.6ZM1306.5 488.1L1317.5 488.3H1328C1333.8 488.3 1338 487.7 1340.5 486.5C1343 485.3 1344.3 482.4 1344.3 477.6L1344.5 468.8C1344.54 466.254 1344.34 463.709 1343.9 461.2C1343.7 459.415 1342.88 457.755 1341.6 456.5C1340.14 455.336 1338.36 454.64 1336.5 454.5C1334.11 454.17 1331.71 454.003 1329.3 454H1309C1304.3 454 1300.8 454.5 1298.4 455.4C1296 456.3 1294.5 458.2 1294.2 461.2C1293.84 463.618 1293.64 466.056 1293.6 468.5V472.9C1293.6 478.9 1294.3 482.9 1295.8 485C1297.3 487.1 1300.8 488.1 1306.5 488.1" fill="#A8985C"/>
<path d="M1399.1 485.5H1379V503.59H1399.1V485.5Z" fill="#A8985C"/>
<path d="M1418.2 520.9H1416.7C1415.23 520.903 1413.76 520.803 1412.3 520.6V510.5L1414.4 510.7C1416.8 510.7 1418.4 510.1 1419.4 508.9C1420.42 507.327 1420.91 505.471 1420.8 503.6H1415.1V485.5H1435.4V503.6C1435.4 509.9 1434.2 514.4 1431.7 517C1429.2 519.6 1424.8 520.9 1418.2 520.9" fill="#A8985C"/>
<path d="M1500.8 438.7H1480.3V503.57H1500.8V438.7Z" fill="#A8985C"/>
<path d="M1579 503.6L1538.6 454.9V503.6H1519.3V438.7H1551.9L1592.4 487.4V438.7H1611.7V503.6H1579Z" fill="#A8985C"/>
<path d="M1708.1 481.7C1708.1 490.7 1706.4 496.6 1703 499.6C1699.6 502.6 1692.9 504 1682.9 504L1667.2 504.3L1654.5 504.1C1641.03 504.1 1632.33 502.4 1628.4 499C1624.6 495.6 1622.6 490.3 1622.6 483.1L1622 469.5C1622 458.8 1623.7 451 1626.9 446.1C1630.1 441.2 1636.7 438.6 1646.7 438.6L1665.8 438.2H1679.6C1683.3 438.3 1687.7 438.6 1692.9 439.1C1698.1 439.6 1701.7 441.8 1704 445.7C1706.3 449.6 1707.3 454.8 1707.3 461.5H1687.4C1687.4 458.5 1686.7 456.6 1685.1 455.6C1683.5 454.6 1681.2 454.1 1677.9 454.1H1656.1C1649.9 454.1 1646.2 455.2 1644.8 457.4C1643.4 459.6 1642.7 464.1 1642.7 471C1642.7 477.9 1643.5 482.7 1645.1 484.9C1646.7 487.1 1651.1 488 1658.1 488L1666 488.2H1676.5C1680.6 488.2 1683.5 487.7 1685.3 486.6C1687.1 485.5 1687.9 482.9 1687.9 478.9H1708L1708.1 481.7Z" fill="#A8985C"/>
</svg>
