<svg width="1929" height="636" viewBox="0 0 1929 636" fill="none" xmlns="http://www.w3.org/2000/svg">
<path d="M1300 458.8H1299.2L1231.4 458.3C1188.2 457.9 1147.4 457.5 1092.7 457.3C1087.7 457.6 1070.4 456.9 1051.2 453.7C1023.7 449 1002.6 441 988.5 429.9C964 410.6 963.6 389.5 963.5 379.4C963.5 378.1 963.4 376.8 963.4 376.2V375.3C962.9 352.9 962.5 329.2 962.2 306.3C961.9 283.4 961.4 259.7 960.9 237.4V237C961.5 185 988.3 164.2 999.9 157.7C1031.1 140 1079.1 136.3 1113.7 138.7H1299.7C1337.4 135.9 1370.6 150.9 1386.4 177.8C1392.79 188.831 1396.17 201.35 1396.2 214.1V257.7H1289.2L1286.6 251.8C1283.15 244.13 1277.42 237.706 1270.2 233.4H1270.1C1263.1 229.1 1249 227.8 1245.6 228.1H1119.6C1108.7 228.1 1093.2 230.8 1085.4 238.6L1085.1 238.9C1082.6 241.4 1077.5 246.5 1077.8 270.1C1078 283.4 1077.9 296.8 1077.9 309.9C1077.8 316.4 1077.8 323 1077.8 329.6C1077.79 338.769 1080.85 347.677 1086.5 354.9L1087.6 356.2C1092.26 361.461 1097.99 365.67 1104.4 368.55C1110.82 371.429 1117.77 372.912 1124.8 372.9L1161.3 373.1C1188.4 373.2 1213.9 373.4 1245 373.4C1262 373.4 1273.2 363.6 1281.1 355C1283.4 352.446 1284.93 349.29 1285.5 345.9H1161.5V267L1396.2 267.6V372.8C1396.68 383.16 1394.99 393.506 1391.26 403.181C1387.52 412.856 1381.82 421.649 1374.5 429C1356.2 447.7 1328.5 458.8 1300 458.8Z" fill="white"/>
<path d="M70.7 459V137.6L448.8 137.1L448.5 226.8H189.1L189.3 260.8L437.1 261.6V340.1L189.3 339.4L189.1 369.4L452.6 370.1L452.9 459.3L70.7 459Z" fill="white"/>
<path d="M1418.4 459V137.6L1796.6 137.1L1796.2 226.8H1536.8L1537 260.8L1784.8 261.6V340.1L1537 339.4L1536.9 369.4L1800.3 370.1L1800.6 459.3L1418.4 459Z" fill="white"/>
<path d="M478.6 136.3H777.7C830.4 137.9 856.9 138.7 892.9 157.7H893.1C919.1 172 932.4 197.9 932.8 234.5V234.9L929.8 369.7V370.7C928.8 379.9 925.7 407.7 898 429C865.4 454.2 808.8 454.9 802.4 454.9H798.6C742.6 455.1 692.4 455.5 643.9 455.9C595.4 456.3 544.9 456.8 488.8 456.9H478.6V136.3ZM601.3 367.1L779.1 366.3C783.4 365.8 796 363.4 805.1 352.4C810.876 345.319 813.99 336.438 813.9 327.3V267.7C814.114 260.987 812.672 254.324 809.7 248.3C802 233.1 786.7 227.4 780.7 225.7H601.3V367.1Z" fill="white"/>
<path d="M78.7998 67.1H110.3V114.4H128.8V67.1H160.5V53.3H78.7998V67.1Z" fill="white"/>
<path d="M237.8 75.7H185.5V53.3H168.2V114.4H185.5V89.6H237.8V114.4H256.2V53.3H237.8V75.7Z" fill="white"/>
<path d="M284.6 100.5V89.5L333.5 89.3V75.7L284.6 75.9V67L337.2 66.8V53.1L267.7 53.3V114.4L337.7 114.2V100.3L284.6 100.5Z" fill="white"/>
<path d="M159.4 534.8C159.4 543.8 157.7 549.7 154.3 552.7C150.9 555.7 144.2 557.1 134.2 557.1L118.6 557.4L105.9 557.2C92.2999 557.2 83.5999 555.5 79.7999 552.1C75.8999 548.7 73.9999 543.4 73.9999 536.2L73.3999 522.6C73.3999 511.867 74.9999 504.067 78.1999 499.2C81.3999 494.333 87.9999 491.833 97.9999 491.7L117.2 491.3H131C134.6 491.433 139 491.733 144.2 492.2C149.4 492.667 153.1 494.867 155.3 498.8C157.5 502.6 158.6 507.9 158.6 514.6H138.7C138.7 511.6 138 509.7 136.5 508.7C135 507.7 132.6 507.2 129.3 507.2H107.5C101.3 507.2 97.4999 508.3 96.0999 510.5C94.6999 512.7 93.9999 517.2 93.9999 524.1C93.9999 531 94.8999 535.8 96.4999 538C98.0999 540.2 102.4 541.1 109.4 541.1L117.4 541.3H127.8C131.9 541.3 134.9 540.8 136.6 539.7C138.3 538.6 139.2 536 139.2 532H159.3L159.4 534.8Z" fill="white"/>
<path d="M218.7 491.2H235.1C247.1 491.2 255.2 493.1 259.7 496.9C264.2 500.7 266.3 508.4 266.3 519.8V523C266.3 536.4 264.5 545.5 261 550C257.5 554.5 248.7 556.9 234.5 556.9L219 557.2H212.6L198.7 556.7C190.9 556.7 184.8 555 180.6 551.6C176.4 548.2 174.3 542.7 174.3 535.1L174.1 523.1C174.1 510 175.8 501.4 179.3 497.3C182.8 493.2 191.1 491.2 204.2 491.2H218.7ZM207.6 541.2L218.6 541.4H229.1C234.9 541.4 239.1 540.8 241.6 539.6C244.1 538.4 245.4 535.5 245.4 530.7L245.6 521.9C245.636 519.353 245.435 516.809 245 514.3C244.832 512.526 244.055 510.865 242.8 509.6C241.322 508.467 239.554 507.774 237.7 507.6C235.28 507.274 232.841 507.107 230.4 507.1H210.1C205.4 507.1 201.9 507.6 199.5 508.5C197.1 509.4 195.7 511.3 195.3 514.3C194.94 516.718 194.74 519.156 194.7 521.6V526C194.7 532 195.5 536 196.9 538.1C198.3 540.2 201.9 541.2 207.6 541.2Z" fill="white"/>
<path d="M342.1 556.7L301.6 508V556.7H282.3V491.8H314.9L355.4 540.5V491.8H374.7V556.7H342.1Z" fill="white"/>
<path d="M406.4 537.1C406.4 539.7 407.3 541.4 409.1 542.1C411.532 542.824 414.063 543.162 416.6 543.1H425.9L439.2 542.7C442.8 542.7 445.2 542.2 446.3 541.3C446.888 540.778 447.347 540.128 447.642 539.399C447.937 538.671 448.059 537.884 448 537.1C448.027 536.301 447.87 535.506 447.541 534.778C447.211 534.049 446.718 533.407 446.1 532.9C444.8 531.8 442.4 531.3 438.8 531.3H435.6L403 530.6C396.9 530.6 392.6 529.1 390.1 526C387.6 522.9 386.3 518.2 386.3 511.9C386.3 505.6 387.1 502.3 388.7 499.3C390.3 496.3 393.2 494.3 397.4 493.2C402.823 492.019 408.35 491.382 413.9 491.3L427.6 491.1L441.4 491.3C445.903 491.173 450.405 491.609 454.8 492.6C458.2 493.4 460.6 495 462 497.4C463.245 499.334 464.158 501.464 464.7 503.7C465.064 506.284 465.231 508.891 465.2 511.5H445.8C445.8 509.2 445.2 507.6 443.8 506.7C442.103 505.722 440.154 505.27 438.2 505.4H428.7L413.5 505.8C411.724 505.744 409.965 506.158 408.4 507C407.721 507.337 407.158 507.869 406.783 508.529C406.409 509.188 406.241 509.944 406.3 510.7C406.3 513.1 407.2 514.7 408.8 515.4C410.961 516.253 413.28 516.628 415.6 516.5H417.6L430.9 516.7H444C452.4 516.7 458.5 518 462.3 520.7C466.1 523.4 468 528.6 468 536.5C468 544.4 466.3 549.4 462.9 552.2C459.5 555 453.8 556.5 445.9 556.5L420.6 557.2L407.3 556.9C400.3 556.9 395.1 555.8 391.8 553.5C388.5 551.2 386.8 546.7 386.8 539.8V536H406.3L406.4 537.1Z" fill="white"/>
<path d="M510.8 556.7V508.1H480.7V491.8H561.2V508.1H531.3V556.7H510.8Z" fill="white"/>
<path d="M634.6 491.8C642.7 491.8 648.5 493.3 651.9 496.4C655.3 499.5 657.1 504.7 657.1 512.4C657.165 514.877 656.997 517.354 656.6 519.8C656.349 521.728 655.665 523.574 654.6 525.2C653.753 526.622 652.546 527.795 651.1 528.6C648.357 529.893 645.515 530.964 642.6 531.8C647.3 532.4 650.8 533.5 653 535.3C655.2 537.1 656.3 540 656.3 544.3V556.7H635.6V550.5C635.679 547.936 635.376 545.375 634.7 542.9C634.1 541 631.4 540.1 626.7 540.1H592.5V556.7H572V491.8H634.6ZM626.1 524.3C630.7 524.3 633.6 523.8 634.7 522.7C635.8 521.6 636.5 519.1 636.5 515.3C636.558 513.671 636.321 512.045 635.8 510.5C635.545 509.963 635.169 509.494 634.7 509.129C634.231 508.764 633.683 508.515 633.1 508.4C631.988 508.071 630.851 507.837 629.7 507.7H592.5V524.4H626.1V524.3Z" fill="white"/>
<path d="M754.3 528.9V532.7C754.3 542.8 751.5 549.5 746.1 552.7C740.7 555.9 732.1 557.5 720.7 557.5H703.9C697.105 557.636 690.312 557.168 683.6 556.1C679.071 555.305 675.004 552.843 672.2 549.2C669.3 545.5 667.8 539.7 667.8 531.8V491.9H688.3V525.9C688.3 532.433 689.1 536.633 690.7 538.5C692.3 540.5 696.4 541.4 702.9 541.4H720.6C726.2 541.4 729.8 540.6 731.3 538.9C732.8 537.2 733.7 533.8 733.7 528.7V491.9H754.3V528.9Z" fill="white"/>
<path d="M857.7 534.8C857.7 543.8 856 549.7 852.6 552.7C849.2 555.7 842.5 557.1 832.5 557.1L816.8 557.4L804.1 557.2C790.633 557.2 781.933 555.5 778 552.1C774.2 548.7 772.2 543.4 772.2 536.2L771.6 522.6C771.6 511.9 773.3 504.1 776.5 499.2C779.7 494.3 786.3 491.7 796.3 491.7L815.4 491.3H829.2C832.9 491.4 837.3 491.7 842.5 492.2C847.7 492.7 851.3 494.9 853.6 498.8C855.9 502.7 856.9 507.9 856.9 514.6H837C837 511.6 836.3 509.7 834.7 508.7C833.1 507.7 830.8 507.2 827.5 507.2H805.7C799.6 507.2 795.8 508.3 794.4 510.5C793 512.7 792.3 517.2 792.3 524.1C792.3 531 793.1 535.8 794.7 538C796.3 540.2 800.7 541.1 807.7 541.1L815.6 541.3H826.1C830.2 541.3 833.1 540.8 834.9 539.7C836.7 538.6 837.5 536 837.5 532H857.6L857.7 534.8Z" fill="white"/>
<path d="M898.8 556.7V508.1H868.7V491.8H949.2V508.1H919.3V556.7H898.8Z" fill="white"/>
<path d="M984.8 491.8H964.3V556.67H984.8V491.8Z" fill="white"/>
<path d="M1044.4 491.2H1060.8C1072.8 491.2 1081 493.1 1085.4 496.9C1089.8 500.7 1092 508.4 1092 519.8V523C1092 536.4 1090.2 545.5 1086.7 550C1083.2 554.5 1074.4 556.9 1060.2 556.9L1044.8 557.2H1038.3L1024.4 556.7C1016.6 556.7 1010.6 555 1006.3 551.6C1002 548.2 1000 542.7 1000 535.1L999.8 523.1C999.8 510 1001.5 501.4 1005 497.3C1008.5 493.2 1016.8 491.2 1029.9 491.2H1044.4ZM1033.4 541.2L1044.3 541.4H1054.8C1060.6 541.4 1064.8 540.8 1067.3 539.6C1069.8 538.4 1071.1 535.5 1071.1 530.7L1071.3 521.9C1071.34 519.353 1071.14 516.809 1070.7 514.3C1070.53 512.526 1069.75 510.865 1068.5 509.6C1067.02 508.467 1065.25 507.774 1063.4 507.6C1061.01 507.277 1058.61 507.11 1056.2 507.1H1035.8C1031.1 507.1 1027.6 507.6 1025.2 508.5C1022.8 509.4 1021.4 511.3 1021 514.3C1020.64 516.718 1020.44 519.156 1020.4 521.6V526C1020.4 532 1021.2 536 1022.6 538.1C1024 540.2 1027.6 541.2 1033.4 541.2" fill="white"/>
<path d="M1167.8 556.7L1127.3 508V556.7H1108V491.8H1140.6L1181.2 540.5V491.8H1200.4V556.7H1167.8Z" fill="white"/>
<path d="M1327.8 534.8C1327.8 543.8 1326.1 549.7 1322.7 552.7C1319.3 555.7 1312.6 557.1 1302.6 557.1L1287 557.4L1274.2 557.2C1260.7 557.2 1252 555.5 1248.2 552.1C1244.4 548.7 1242.4 543.4 1242.4 536.2L1241.8 522.6C1241.8 511.867 1243.4 504.067 1246.6 499.2C1249.8 494.333 1256.4 491.833 1266.4 491.7L1285.5 491.3H1299.4C1303 491.433 1307.4 491.733 1312.6 492.2C1317.8 492.667 1321.5 494.867 1323.7 498.8C1325.9 502.6 1327 507.9 1327 514.6H1307.1C1307.1 511.6 1306.4 509.7 1304.9 508.7C1303.4 507.7 1300.9 507.2 1297.6 507.2H1275.9C1269.7 507.2 1265.9 508.3 1264.5 510.5C1263.1 512.7 1262.4 517.2 1262.4 524.1C1262.4 531 1263.2 535.8 1264.9 538C1266.6 540.2 1270.8 541.1 1277.8 541.1L1285.7 541.3H1296.2C1300.3 541.3 1303.3 540.8 1305 539.7C1306.7 538.6 1307.6 536 1307.6 532H1327.7L1327.8 534.8Z" fill="white"/>
<path d="M1388.3 491.2H1404.7C1416.6 491.2 1424.8 493.1 1429.2 496.9C1433.6 500.7 1435.8 508.4 1435.8 519.8V523C1435.8 536.4 1434.1 545.5 1430.6 550C1427.1 554.5 1418.3 556.9 1404.1 556.9L1388.6 557.2H1382.2L1368.3 556.7C1360.4 556.7 1354.4 555 1350.2 551.6C1346 548.2 1343.8 542.7 1343.8 535.1L1343.6 523.1C1343.6 510 1345.4 501.4 1348.9 497.3C1352.4 493.2 1360.7 491.2 1373.8 491.2H1388.3ZM1377.2 541.2L1388.2 541.4H1398.7C1404.5 541.4 1408.7 540.8 1411.2 539.6C1413.7 538.4 1415 535.5 1415 530.7L1415.2 521.9C1415.24 519.353 1415.04 516.809 1414.6 514.3C1414.4 512.515 1413.58 510.855 1412.3 509.6C1410.84 508.436 1409.06 507.739 1407.2 507.6C1404.81 507.27 1402.41 507.103 1400 507.1H1379.7C1375 507.1 1371.5 507.6 1369.1 508.5C1366.7 509.4 1365.2 511.3 1364.9 514.3C1364.54 516.718 1364.34 519.156 1364.3 521.6V526C1364.3 532 1365 536 1366.5 538.1C1368 540.2 1371.5 541.2 1377.2 541.2" fill="white"/>
<path d="M1469.8 538.6H1449.7V556.69H1469.8V538.6Z" fill="white"/>
<path d="M1488.9 574H1487.4C1485.93 574.003 1484.46 573.903 1483 573.7V563.6L1485.1 563.8C1487.5 563.8 1489.1 563.2 1490.1 562C1491.12 560.427 1491.61 558.571 1491.5 556.7H1485.8V538.6H1506.1V556.7C1506.1 563 1504.9 567.5 1502.4 570.1C1499.9 572.7 1495.5 574 1488.9 574" fill="white"/>
<path d="M1571.5 491.8H1551V556.67H1571.5V491.8Z" fill="white"/>
<path d="M1649.7 556.7L1609.3 508V556.7H1590V491.8H1622.6L1663.1 540.5V491.8H1682.4V556.7H1649.7Z" fill="white"/>
<path d="M1778.8 534.8C1778.8 543.8 1777.1 549.7 1773.7 552.7C1770.3 555.7 1763.6 557.1 1753.6 557.1L1737.9 557.4L1725.2 557.2C1711.73 557.2 1703.03 555.5 1699.1 552.1C1695.3 548.7 1693.3 543.4 1693.3 536.2L1692.7 522.6C1692.7 511.9 1694.4 504.1 1697.6 499.2C1700.8 494.3 1707.4 491.7 1717.4 491.7L1736.5 491.3H1750.3C1754 491.4 1758.4 491.7 1763.6 492.2C1768.8 492.7 1772.4 494.9 1774.7 498.8C1777 502.7 1778 507.9 1778 514.6H1758.1C1758.1 511.6 1757.4 509.7 1755.8 508.7C1754.2 507.7 1751.9 507.2 1748.6 507.2H1726.8C1720.6 507.2 1716.9 508.3 1715.5 510.5C1714.1 512.7 1713.4 517.2 1713.4 524.1C1713.4 531 1714.2 535.8 1715.8 538C1717.4 540.2 1721.8 541.1 1728.8 541.1L1736.7 541.3H1747.2C1751.3 541.3 1754.2 540.8 1756 539.7C1757.8 538.6 1758.6 536 1758.6 532H1778.7L1778.8 534.8Z" fill="white"/>
</svg>
