<svg width="885" height="614" viewBox="0 0 885 614" fill="none" xmlns="http://www.w3.org/2000/svg">
<path d="M415.793 23.8705C305.882 -20.2996 240.026 12.0005 235.118 14.2832C235.004 14.7397 0.457031 213.791 0.457031 213.791C0.457031 213.791 47.3664 219.269 83.8895 254.194C129.087 297.337 138.104 353.492 138.104 353.492L415.793 23.8705Z" fill="white"/>
<path d="M571.472 133.325C564.967 126.82 506.187 60.9641 429.489 30.376L344.687 132.983L571.472 133.325Z" fill="white"/>
<path d="M83.4395 536.222L103.939 484.343H121.442L141.942 536.222H125.7L122.231 526.13H101.101L97.7891 536.222H83.4395ZM118.762 516.038L112.139 494.435H111.981L104.885 516.038H118.762Z" fill="white"/>
<path d="M166.857 511.308C166.857 510.046 166.699 508.942 166.069 508.311C165.28 507.523 164.176 507.05 162.284 507.05C160.234 507.05 159.13 508.154 159.13 510.361C159.13 513.042 164.649 512.884 173.165 515.565C177.422 516.984 180.418 519.665 180.418 525.5C180.418 535.119 171.43 537.484 163.072 537.484C154.242 537.484 145.569 535.749 145.727 524.711H158.657C158.499 525.815 158.815 527.076 159.603 527.865C160.392 528.811 161.496 529.599 162.915 529.599C165.595 529.599 167.488 528.653 167.488 526.288C167.488 519.823 146.042 523.765 146.042 510.677C146.042 501.689 155.503 499.323 162.757 499.323C171.272 499.323 179.314 501.531 179.787 511.623L166.857 511.308Z" fill="white"/>
<path d="M207.225 511.308C207.225 510.046 207.067 508.942 206.437 508.311C205.648 507.523 204.544 507.05 202.652 507.05C200.602 507.05 199.341 508.154 199.341 510.361C199.341 513.042 204.86 512.884 213.533 515.565C217.79 516.984 220.786 519.665 220.786 525.5C220.786 535.119 211.798 537.484 203.598 537.484C194.768 537.484 186.095 535.749 186.095 524.711H199.025C198.867 525.815 199.183 527.076 199.971 527.865C200.76 528.811 201.864 529.599 203.283 529.599C205.963 529.599 207.856 528.653 207.856 526.288C207.856 519.823 186.41 523.765 186.41 510.677C186.41 501.689 195.871 499.323 203.125 499.323C211.64 499.323 219.525 501.531 220.155 511.623L207.225 511.308Z" fill="white"/>
<path d="M268.883 518.247C268.883 531.493 259.106 537.328 247.91 537.328C236.556 537.328 226.938 531.493 226.938 518.247C226.938 505.002 236.714 499.167 247.91 499.167C259.106 499.009 268.883 504.844 268.883 518.247ZM247.91 529.443C253.744 529.443 254.848 523.293 254.848 518.247C254.848 513.044 253.587 507.052 247.91 507.052C242.076 507.052 240.972 513.201 240.972 518.247C240.814 523.293 242.076 529.443 247.91 529.443Z" fill="white"/>
<path d="M299.788 512.885C299.788 511.15 299.473 509.731 298.684 508.627C297.896 507.681 296.476 507.05 294.426 507.05C289.38 507.05 289.223 514.462 289.223 518.246C289.223 522.031 289.538 529.442 294.426 529.442C299.157 529.127 299.788 525.342 299.788 522.188H313.507C313.507 527.235 311.299 531.019 307.83 533.542C304.361 536.065 299.788 537.169 295.057 537.327C281.338 537.327 275.188 530.704 275.188 518.246C275.188 505.158 284.177 499.166 295.057 499.166C304.203 499.008 312.876 502.635 313.507 512.885H299.788Z" fill="white"/>
<path d="M321.707 493.962V484.343H335.584V493.962H321.707ZM321.707 536.222V500.112H335.426V536.222H321.707Z" fill="white"/>
<path d="M367.91 536.222C367.595 535.118 367.595 533.856 367.595 531.333H367.437C365.86 533.856 362.706 537.326 355.926 537.326C347.41 537.326 342.837 532.753 342.995 525.341C343.153 516.511 351.195 512.884 363.022 512.884H367.279C367.279 509.73 368.068 505.157 362.549 505.315C359.237 505.473 358.133 508.626 358.291 510.834H345.36C345.36 505.63 347.883 502.792 351.668 501.057C355.453 499.323 360.026 498.85 364.125 498.85C371.379 498.85 380.367 501.846 380.21 510.045V528.81C380.21 530.23 380.525 531.806 380.998 536.222H367.91ZM361.129 529.441C366.964 529.441 367.595 523.922 367.595 519.034C364.756 519.034 362.075 518.876 360.183 519.822C358.133 520.768 356.556 522.188 356.556 524.711C356.399 527.234 358.449 529.441 361.129 529.441Z" fill="white"/>
<path d="M393.14 500.111V494.592L406.859 489.389V499.954H414.743V508.627H406.859V522.976C406.859 523.922 406.386 528.653 409.382 528.653C411.274 528.653 413.009 528.653 414.586 528.495V536.695C411.432 537.326 409.224 537.484 407.332 537.484C398.028 537.484 392.351 536.222 393.14 525.026V508.784H386.044V500.111C386.202 500.111 393.14 500.111 393.14 500.111Z" fill="white"/>
<path d="M432.878 520.926C432.72 525.657 433.981 529.599 439.185 529.599C442.97 529.599 445.335 527.865 445.966 524.396H458.581C458.108 529.126 455.112 532.438 451.643 534.488C448.489 536.538 444.389 537.326 440.131 537.326C425.624 537.326 419.947 531.176 419.947 516.984C419.947 505.473 428.462 499.008 439.343 499.008C454.008 499.008 458.739 507.365 458.739 520.926H432.878ZM445.808 513.673C445.808 511.781 445.177 509.731 444.231 508.311C443.127 506.735 441.551 505.946 439.501 505.946C434.77 506.104 433.666 509.573 433.193 513.673H445.808Z" fill="white"/>
<path d="M492.167 531.019H491.852C489.96 535.434 484.914 537.484 479.868 537.484C469.618 537.484 464.729 527.392 464.729 518.561C464.729 508.942 469.618 499.323 480.341 499.323C484.914 499.323 489.487 500.9 492.01 504.685H492.167V484.658H505.886V536.538H492.483L492.167 531.019ZM478.764 518.246C478.764 522.976 479.868 529.442 485.387 529.442C491.063 529.442 492.01 522.976 492.01 518.246C492.01 513.357 491.379 507.05 485.387 507.05C479.552 507.05 478.764 513.357 478.764 518.246Z" fill="white"/>
<path d="M539.475 536.222V484.343H564.389C574.166 484.343 582.366 488.758 582.366 497.904C582.366 504.212 577.004 508.154 571.17 509.258V509.415C578.108 510.361 583.785 514.777 583.785 522.188C583.785 537.326 564.547 536.222 563.916 536.222H539.475ZM553.824 505H561.236C565.178 505 567.701 503.423 567.701 499.481C567.701 496.485 565.178 494.435 561.866 494.435H553.982L553.824 505ZM562.339 526.13C565.966 526.13 568.647 523.923 568.647 520.769C568.647 517.93 566.597 515.092 563.443 514.934H553.982V526.13H562.339Z" fill="white"/>
<path d="M616.425 532.281C613.272 535.908 609.645 537.327 605.072 537.327C597.345 537.327 591.511 532.281 591.511 524.239V500.112H605.23V521.4C605.387 524.869 606.176 528.812 610.433 528.812C617.214 528.812 616.268 521.4 616.268 520.927V500.112H629.987V526.919C629.987 530.231 629.987 532.281 630.46 536.223H616.583L616.425 532.281Z" fill="white"/>
<path d="M640.396 493.962V484.343H654.272V493.962H640.396ZM640.396 536.222V500.112H654.114V536.222H640.396Z" fill="white"/>
<path d="M664.68 536.222V484.343H678.399V536.222H664.68Z" fill="white"/>
<path d="M714.194 531.019H713.878C711.986 535.434 706.94 537.484 701.894 537.484C691.644 537.484 686.756 527.392 686.756 518.561C686.756 508.942 691.487 499.323 702.367 499.323C706.94 499.323 711.513 500.9 714.036 504.685H714.194V484.658H727.913V536.538H714.667L714.194 531.019ZM700.79 518.246C700.79 522.976 701.894 529.442 707.571 529.442C713.248 529.442 714.194 522.976 714.194 518.246C714.194 513.357 713.405 507.05 707.571 507.05C701.579 507.05 700.79 513.357 700.79 518.246Z" fill="white"/>
<path d="M747.624 520.926C747.624 525.657 748.728 529.599 753.931 529.599C757.716 529.599 760.081 527.865 760.554 524.396H773.169C772.696 529.126 769.858 532.438 766.389 534.488C763.235 536.538 759.135 537.326 754.877 537.326C740.37 537.326 734.693 531.176 734.693 516.984C734.693 505.473 743.209 499.008 754.089 499.008C768.754 499.008 773.485 507.365 773.485 520.926H747.624ZM760.554 513.673C760.554 511.781 759.923 509.731 758.977 508.311C757.873 506.735 756.297 505.946 754.247 505.946C749.516 506.104 748.412 509.573 747.939 513.673H760.554Z" fill="white"/>
<path d="M794.93 506.894C796.664 500.902 801.08 498.852 807.229 499.009V510.521C806.126 510.521 805.337 510.521 804.391 510.521C797.295 510.521 794.772 514.936 795.087 521.716V536.224H781.369V509.417C781.369 506.105 781.369 504.055 780.896 500.113H794.772L794.93 506.894Z" fill="white"/>
<path d="M832.776 511.308C832.776 510.046 832.618 508.942 831.987 508.311C831.199 507.523 830.095 507.05 828.203 507.05C826.153 507.05 824.891 508.154 824.891 510.361C824.891 513.042 830.41 512.884 838.926 515.565C843.183 516.984 846.179 519.665 846.179 525.5C846.179 535.119 837.191 537.484 828.834 537.484C820.003 537.484 811.33 535.749 811.33 524.711H824.261C824.103 525.815 824.418 527.076 825.207 527.865C825.995 528.811 827.099 529.599 828.518 529.599C831.199 529.599 833.091 528.653 833.091 526.288C833.091 519.823 811.803 523.765 811.803 510.677C811.803 501.689 821.264 499.323 828.518 499.323C837.033 499.323 844.918 501.531 845.548 511.623L832.776 511.308Z" fill="white"/>
<path d="M103.625 604.503C103.309 603.399 103.309 602.295 103.309 599.615H103.152C101.417 602.138 98.421 605.607 91.6404 605.607C83.1253 605.607 78.5523 601.034 78.71 593.622C78.8677 584.792 86.9098 581.323 98.7364 581.323H103.152C103.152 578.169 103.94 573.596 98.421 573.754C95.1096 573.912 94.0058 577.223 94.1635 579.273H81.233C81.0753 574.069 83.756 571.231 87.5406 569.654C91.3251 567.919 95.898 567.446 99.9979 567.446C107.409 567.446 116.24 570.6 116.082 578.642V597.249C116.082 598.826 116.397 600.403 116.871 604.661L103.625 604.503ZM96.6865 597.722C102.521 597.722 103.152 592.203 103.152 587.315C100.313 587.315 97.4749 587.157 95.7403 588.103C93.6904 589.05 92.1135 590.469 92.1135 592.992C91.9558 595.515 94.0058 597.722 96.6865 597.722Z" fill="white"/>
<path d="M138.474 572.334C141.627 568.707 145.097 567.288 149.827 567.288C157.554 567.288 163.388 572.334 163.388 580.376V604.502H149.67V583.372C149.512 579.903 148.723 575.961 144.466 575.961C137.685 575.961 138.631 583.372 138.631 583.845V604.502H124.913V577.695C124.913 574.542 124.913 572.334 124.439 568.392H138.316L138.474 572.334Z" fill="white"/>
<path d="M198.079 599.14H197.764C195.872 603.555 190.826 605.605 185.78 605.605C175.53 605.605 170.642 595.67 170.642 586.682C170.642 577.063 175.53 567.287 186.253 567.287C190.826 567.287 195.399 568.863 197.922 572.648H198.079V552.464H211.798V604.501H198.552L198.079 599.14ZM184.676 586.367C184.676 591.097 185.78 597.563 191.299 597.563C196.976 597.563 197.922 591.097 197.922 586.367C197.922 581.479 197.291 575.171 191.299 575.171C185.464 575.171 184.676 581.636 184.676 586.367Z" fill="white"/>
<path d="M276.767 568.864C276.451 564.133 272.824 561.61 266.99 561.61C258.632 561.61 257.213 571.387 257.213 579.114C257.213 586.683 258.948 595.671 266.99 595.671C272.982 595.671 276.451 592.99 276.767 588.102H291.905C292.062 601.19 279.605 605.763 266.99 605.763C250.748 605.763 242.075 595.986 242.075 578.64C242.075 561.295 250.748 551.833 266.99 551.676C279.605 551.676 292.062 555.933 291.905 569.021H276.767V568.864Z" fill="white"/>
<path d="M339.21 586.368C339.21 599.614 329.433 605.449 318.237 605.449C306.884 605.449 297.265 599.614 297.265 586.368C297.265 573.123 307.041 567.288 318.237 567.288C329.591 567.288 339.21 573.123 339.21 586.368ZM318.237 597.722C324.072 597.722 325.175 591.572 325.175 586.526C325.175 581.48 323.914 575.33 318.237 575.33C312.56 575.33 311.299 581.48 311.299 586.526C311.299 591.572 312.56 597.722 318.237 597.722Z" fill="white"/>
<path d="M360.341 572.334C363.495 568.707 366.964 567.288 371.695 567.288C379.422 567.288 385.256 572.334 385.256 580.376V604.502H371.537V583.372C371.38 579.903 370.591 575.961 366.334 575.961C359.553 575.961 360.341 583.372 360.341 583.845V604.502H346.623V577.695C346.623 574.542 346.465 572.334 346.149 568.392H360.026L360.341 572.334Z" fill="white"/>
<path d="M397.554 568.392V562.873L411.273 557.669V568.392H419.158V577.065H411.273V591.414C411.273 592.36 410.643 597.091 413.954 597.091C415.689 597.091 417.581 597.091 419.158 596.933V605.133C416.004 605.764 413.796 605.764 411.904 605.764C402.601 605.764 396.924 604.502 397.712 593.464V577.222H390.616V568.549L397.554 568.392Z" fill="white"/>
<path d="M439.5 575.171C441.235 569.179 445.65 567.129 451.8 567.287V578.956C450.854 578.798 449.907 578.798 448.961 578.798C441.865 578.956 439.342 583.055 439.658 589.994V604.501H425.939V577.694C425.939 574.54 425.781 572.333 425.466 568.39H439.342L439.5 575.171Z" fill="white"/>
<path d="M479.08 604.503C478.764 603.399 478.764 602.295 478.764 599.615H478.607C476.872 602.138 473.876 605.607 467.096 605.607C458.58 605.607 454.007 601.034 454.165 593.622C454.323 584.792 462.365 581.323 474.192 581.323H478.449C478.449 578.169 479.238 573.596 473.718 573.754C470.407 573.912 469.303 577.223 469.461 579.273H456.53C456.373 574.069 459.053 571.231 462.838 569.654C466.622 567.919 471.195 567.446 475.295 567.446C482.707 567.446 491.537 570.6 491.38 578.642V597.249C491.38 598.826 491.695 600.403 492.168 604.661L479.08 604.503ZM472.142 597.722C477.976 597.722 478.607 592.203 478.607 587.315C475.768 587.315 472.93 587.157 471.195 588.103C469.145 589.05 467.569 590.469 467.569 592.992C467.569 595.515 469.619 597.722 472.142 597.722Z" fill="white"/>
<path d="M523.233 581.006C523.233 579.271 522.918 577.695 522.129 576.748C521.341 575.802 519.922 575.172 517.872 575.172C512.826 575.172 512.668 582.583 512.668 586.367C512.668 590.152 512.983 597.563 517.872 597.563C522.602 597.248 523.233 593.463 523.233 590.31H536.952C536.952 595.356 534.744 599.14 531.275 601.663C527.806 604.028 523.233 605.29 518.503 605.448C504.784 605.448 498.634 598.825 498.634 586.367C498.634 573.279 507.622 567.287 518.503 567.287C527.648 567.129 536.321 570.756 536.952 581.006H523.233Z" fill="white"/>
<path d="M547.201 568.392V562.873L560.92 557.669V568.392H568.805V577.065H560.92V591.414C560.92 592.36 560.29 597.091 563.601 597.091C565.336 597.091 567.228 597.091 568.805 596.933V605.133C565.651 605.764 563.443 605.764 561.393 605.764C552.09 605.764 546.571 604.502 547.201 593.464V577.222H540.105V568.549L547.201 568.392Z" fill="white"/>
<path d="M615.797 586.368C615.797 599.614 606.02 605.449 594.824 605.449C583.471 605.449 573.852 599.614 573.852 586.368C573.852 573.123 583.628 567.288 594.824 567.288C606.178 567.288 615.797 573.123 615.797 586.368ZM594.824 597.722C600.501 597.722 601.762 591.572 601.762 586.526C601.762 581.48 600.501 575.33 594.824 575.33C588.99 575.33 587.886 581.48 587.886 586.526C587.886 591.572 589.147 597.722 594.824 597.722Z" fill="white"/>
<path d="M636.927 575.171C638.661 569.179 643.077 567.129 649.227 567.287V578.956C648.28 578.798 647.334 578.798 646.388 578.798C639.292 578.956 636.769 583.055 637.085 589.994V604.501H623.366V577.694C623.366 574.54 623.366 572.333 622.893 568.39H636.769L636.927 575.171Z" fill="white"/>
<path d="M673.825 579.588C673.825 578.326 673.668 577.222 673.037 576.592C672.249 575.803 671.145 575.33 669.253 575.33C667.203 575.33 665.941 576.434 665.941 578.484C665.941 581.165 671.46 581.007 680.133 583.688C684.391 585.107 687.387 587.63 687.387 593.622C687.387 603.241 678.398 605.606 670.199 605.606C661.368 605.606 652.695 603.872 652.695 592.834H665.626C665.468 593.937 665.783 595.041 666.572 595.987C667.36 596.933 668.464 597.722 669.883 597.722C672.564 597.722 674.456 596.776 674.456 594.41C674.456 587.945 653.011 591.887 653.011 578.642C653.011 569.653 662.472 567.288 669.726 567.288C678.241 567.288 686.283 569.496 686.756 579.588H673.825V579.588Z" fill="white"/>
<path d="M694.798 593.779H708.359L699.844 613.017H690.067L694.798 593.779Z" fill="white"/>
<path d="M739.266 604.501V552.464H753.615V604.501H739.266Z" fill="white"/>
<path d="M776.481 572.334C779.635 568.707 783.104 567.288 787.835 567.288C795.561 567.288 801.396 572.334 801.396 580.376V604.502H787.677V583.372C787.519 579.903 786.731 575.961 782.473 575.961C775.693 575.961 776.639 583.372 776.639 583.845V604.502H762.762V577.695C762.762 574.542 762.762 572.334 762.289 568.392H776.166L776.481 572.334Z" fill="white"/>
<path d="M833.248 581.006C833.248 579.271 832.932 577.695 832.144 576.748C831.356 575.802 829.936 575.172 827.886 575.172C822.84 575.172 822.683 582.583 822.683 586.367C822.683 590.152 822.998 597.563 827.886 597.563C832.617 597.248 833.248 593.463 833.248 590.31H846.967C846.967 595.356 844.759 599.14 841.29 601.663C837.821 604.028 833.248 605.29 828.517 605.448C814.798 605.448 808.648 598.825 808.648 586.367C808.648 573.279 817.637 567.287 828.517 567.287C837.663 567.129 846.336 570.756 846.967 581.006H833.248Z" fill="white"/>
<path d="M854.852 604.502V593.779H867.782V604.502H854.852Z" fill="white"/>
<path d="M0 213.678C0 213.678 42.4581 219.157 77.3833 248.375C127.717 290.605 137.761 354.521 137.761 354.521L176.681 307.611C176.681 307.611 159.446 254.767 115.048 217.559C67.9101 178.068 35.0394 184.346 35.0394 184.346L0 213.678Z" fill="#EF3E42"/>
<path d="M246.988 224.519C246.988 224.519 224.503 178.865 175.653 152.272C126.918 125.678 91.5362 136.293 91.5362 136.293L59.9209 163.229C59.9209 163.229 105.232 161.174 141.984 188.338C193.687 226.802 208.41 270.287 208.41 270.287L246.988 224.519Z" fill="#EF3E42"/>
<path d="M497.057 133.325H571.587C569.761 131.385 568.619 130.13 566.565 127.961C524.221 82.8778 482.79 51.719 429.832 30.2617L399.472 66.6707C453.914 82.3071 495.801 132.07 497.057 133.325Z" fill="#EF3E42"/>
<path d="M436.909 133.326C422.414 113.924 394.679 100.456 376.417 94.6348L344.117 133.441L436.909 133.326Z" fill="#EF3E42"/>
<path d="M416.819 23.871C313.185 -19.8426 245.275 8.91931 234.888 13.713C234.66 14.2836 117.786 113.809 117.786 113.809C117.786 113.809 154.766 104.45 202.474 125.337C258.4 149.762 277.232 188.681 277.232 188.681L416.819 23.871Z" fill="#13457F"/>
<path d="M607.311 281.93C624.203 267.549 634.019 248.831 634.019 227.259C634.019 177.497 591.789 147.137 551.157 147.137C517.601 147.137 407.804 147.251 407.804 147.251V447.768C407.804 447.768 474.801 447.539 566.109 447.539C610.165 447.539 646.916 412.5 646.916 351.78C646.916 320.964 631.736 297.566 607.311 281.93ZM478.453 210.025C478.453 210.025 526.161 209.911 531.412 209.911C538.716 209.911 559.032 210.481 559.032 234.906C559.032 259.331 537.347 259.217 530.955 259.217C527.074 259.217 478.567 259.103 478.567 259.103L478.453 210.025ZM541.227 384.537C538.374 384.537 478.453 384.194 478.453 384.194V321.991C478.453 321.991 540.2 321.991 541.684 321.991C544.423 321.991 573.641 322.562 573.641 352.579C573.641 382.711 551.043 384.537 541.227 384.537Z" fill="white"/>
<path d="M333.159 147.25L79.4375 447.538H166.979L208.638 394.466H325.284V447.767H392.167V147.25H333.159ZM326.311 243.58V331.463H255.89L326.311 243.58Z" fill="white"/>
<path d="M314.443 105.705C314.329 105.591 305.769 100.455 296.524 95.8897C300.519 90.1829 304.742 84.1338 304.742 84.1338C304.742 84.0196 304.856 83.9055 304.856 83.7914C304.856 83.6772 304.856 83.5631 304.742 83.449C304.628 83.2207 304.399 83.2207 304.171 83.2207C304.057 83.2207 293.442 86.7589 283.969 90.2971C275.181 86.9871 266.507 84.5903 266.392 84.5903C266.164 84.5903 266.05 84.5903 265.936 84.7045C265.822 84.8186 265.822 84.9327 265.822 85.0469V85.161C265.822 85.161 267.077 91.5525 268.219 97.4875C258.517 102.852 247.674 109.814 247.446 109.928C247.332 110.042 247.218 110.156 247.218 110.385C247.218 110.499 247.218 110.499 247.218 110.499C247.332 110.727 247.446 110.841 247.788 110.841C247.788 110.841 260.914 110.271 270.501 109.814C272.442 120.885 273.469 130.244 273.469 130.358C273.469 130.587 273.697 130.815 273.925 130.815C274.154 130.815 274.382 130.701 274.496 130.587C274.61 130.472 280.773 119.287 287.85 108.787C296.981 107.988 314.443 106.618 314.443 106.618C314.671 106.618 314.9 106.39 314.9 106.162V106.048C314.671 105.934 314.557 105.705 314.443 105.705Z" fill="white"/>
<path d="M382.808 49.3231C382.694 49.3231 373.107 45.3284 363.519 41.9043C367.172 36.6541 370.824 31.0615 370.824 31.0615C370.938 30.9474 370.938 30.8332 370.938 30.7191C370.938 30.605 370.938 30.4908 370.824 30.3767C370.71 30.1484 370.481 30.1484 370.253 30.1484C370.139 30.1484 358.383 33.5725 348.796 37.2248C339.209 34.7138 329.507 32.7735 329.393 32.7735C329.165 32.7735 328.936 32.7735 328.822 33.0018C328.822 33.1159 328.708 33.2301 328.708 33.3442C328.708 33.4583 328.708 33.5725 328.822 33.6866C328.822 33.6866 331.105 37.2248 333.73 44.8718C324.143 50.6927 313.756 58.2256 313.642 58.3397C313.528 58.4538 313.414 58.568 313.414 58.7963C313.414 58.9104 313.414 58.9104 313.414 59.0245C313.528 59.2528 313.756 59.3669 313.985 59.3669C314.099 59.3669 325.398 57.6549 336.926 56.5136C339.437 66.7857 340.578 74.3186 340.578 74.3186C340.578 74.5468 340.806 74.661 341.035 74.7751C341.263 74.7751 341.491 74.7751 341.605 74.5468C341.605 74.5468 350.622 61.0789 354.617 54.9157C367.742 53.3178 382.351 50.3503 382.58 50.3503C382.808 50.3503 382.922 50.122 383.036 49.8937C383.15 49.6655 382.922 49.4372 382.808 49.3231Z" fill="white"/>
<path d="M232.606 76.4877C232.606 76.2594 232.378 76.0312 232.15 76.0312C232.036 76.0312 224.274 75.1181 215.486 74.6615C219.253 69.982 223.019 65.1884 223.019 65.1884C223.133 65.0742 223.133 64.9601 223.133 64.846C223.133 64.7318 223.133 64.6177 223.019 64.5036C222.905 64.2753 222.562 64.2753 222.334 64.3894C222.22 64.5036 211.377 69.6396 202.018 74.4333C195.969 74.5474 182.958 74.7757 182.958 74.7757C182.729 74.7757 182.501 74.8898 182.501 75.1181V75.2322C182.501 75.4605 182.615 75.5746 182.729 75.6888C182.729 75.6888 185.469 77.6291 187.865 82.1944C180.104 86.5316 162.984 96.1189 162.984 96.1189C162.87 96.233 162.756 96.3471 162.756 96.5754C162.756 96.6895 162.756 96.6896 162.756 96.8037C162.87 97.032 163.098 97.1461 163.327 97.1461C177.479 93.0372 183.757 91.7817 188.322 90.8687C188.322 90.8687 189.806 90.5263 190.719 90.298C192.317 97.0319 192.431 102.739 192.431 102.853C192.431 103.081 192.545 103.309 192.773 103.309C193.002 103.309 193.23 103.309 193.344 103.081C193.344 103.081 204.643 88.4718 206.698 85.7326C219.367 81.6238 232.036 77.0584 232.264 77.0584C232.492 76.9442 232.606 76.716 232.606 76.4877Z" fill="white"/>
<path d="M301.316 30.0346C301.316 29.8063 301.087 29.578 300.859 29.578C300.859 29.578 290.815 29.2356 283.625 29.0074C287.62 23.8713 291.728 18.7352 291.728 18.7352C291.843 18.6211 291.843 18.507 291.843 18.3928C291.843 18.2787 291.843 18.1646 291.728 18.0504C291.614 17.8222 291.272 17.8222 291.158 17.9363C291.044 18.0504 278.831 23.7572 269.13 28.8932C258.287 29.2356 250.868 30.1487 250.868 30.1487C250.64 30.1487 250.412 30.377 250.412 30.7194C250.412 30.9477 250.64 31.1759 250.868 31.2901C250.982 31.2901 254.292 32.089 256.803 36.1979C248.357 41.6763 239.341 48.2961 239.341 48.4103C239.226 48.5244 239.112 48.6385 239.112 48.8668C239.112 48.9809 239.112 48.9809 239.112 49.0951C239.226 49.3233 239.455 49.4375 239.683 49.3233C239.683 49.3233 259.314 44.0731 259.657 43.959C261.254 50.5788 261.369 56.2856 261.369 56.3997C261.369 56.628 261.483 56.8562 261.711 56.8562C261.939 56.9704 262.168 56.8562 262.282 56.628C262.282 56.628 273.581 42.0187 275.635 39.2795C288.304 35.1706 300.973 30.6052 301.202 30.6052C301.202 30.4911 301.316 30.377 301.316 30.0346Z" fill="white"/>
<path d="M861.831 188.453C874.956 208.54 884.315 230.226 885 255.107H818.003C814.351 237.188 798.258 219.383 780.338 215.16C761.164 209.111 740.391 216.416 727.266 231.71C703.868 258.874 702.27 302.587 712.086 335.572C716.651 350.866 726.695 366.617 741.989 374.835C757.169 383.052 779.996 382.482 793.692 371.182C807.731 359.312 814.122 344.361 817.775 328.268H884.543C882.375 376.661 855.325 426.994 807.16 445.256C758.995 460.207 703.868 450.734 670.997 410.787C625.572 355.318 625.344 261.499 660.04 200.893C686.862 156.723 733.771 137.891 785.246 143.94C814.693 148.848 842.314 161.289 861.831 188.453Z" fill="white"/>
</svg>
